<svg width="22" height="22" viewBox="0 0 22 22" fill="none" xmlns="http://www.w3.org/2000/svg">
<path d="M11 0C9.55546 -1.2223e-06 8.12506 0.284521 6.79048 0.837323C5.4559 1.39012 4.24327 2.20038 3.22182 3.22182C2.20038 4.24327 1.39012 5.4559 0.837323 6.79048C0.284521 8.12506 -1.2223e-06 9.55546 0 11C-1.2223e-06 12.4445 0.284521 13.8749 0.837323 15.2095C1.39012 16.5441 2.20038 17.7567 3.22182 18.7782C4.24327 19.7996 5.4559 20.6099 6.79048 21.1627C8.12506 21.7155 9.55546 22 11 22C12.4445 22 13.8749 21.7155 15.2095 21.1627C16.5441 20.6099 17.7567 19.7996 18.7782 18.7782C19.7996 17.7567 20.6099 16.5441 21.1627 15.2095C21.7155 13.8749 22 12.4445 22 11C22 9.55546 21.7155 8.12506 21.1627 6.79048C20.6099 5.4559 19.7996 4.24327 18.7782 3.22182C17.7567 2.20038 16.5441 1.39012 15.2095 0.837323C13.8749 0.284521 12.4445 -1.2223e-06 11 0ZM4.75631 6.76923V6.77254L4.77284 6.78576H17.3428C17.3985 6.78554 17.4537 6.79633 17.5053 6.8175C17.5568 6.83866 17.6036 6.86979 17.6431 6.9091C17.6825 6.94841 17.7138 6.99512 17.7352 7.04655C17.7566 7.09799 17.7676 7.15314 17.7676 7.20883V7.45343V14.8077C17.7676 14.8634 17.7566 14.9185 17.7352 14.97C17.7138 15.0214 17.6825 15.0681 17.6431 15.1074C17.6036 15.1467 17.5568 15.1779 17.5053 15.199C17.4537 15.2202 17.3985 15.231 17.3428 15.2308H4.67698C4.56478 15.2308 4.45717 15.1862 4.37783 15.1068C4.29849 15.0275 4.25392 14.9199 4.25391 14.8077V7.45012L4.23077 7.43194L4.25391 7.40219V7.20553C4.25392 7.09333 4.29849 6.98572 4.37783 6.90638C4.45717 6.82704 4.56478 6.78246 4.67698 6.78245H4.74639L4.75631 6.76923ZM5.84044 7.62861L11.0165 11.7305L16.186 7.62861H5.84044ZM5.09841 8.12109V14.3846H16.9198V8.1244L11.2793 12.6031C11.2047 12.6619 11.1124 12.6939 11.0174 12.6939C10.9223 12.6939 10.83 12.6619 10.7554 12.6031L5.09841 8.12109Z" fill="black"/>
</svg>
