<svg width="22" height="22" viewBox="0 0 22 22" fill="none" xmlns="http://www.w3.org/2000/svg">
<path fill-rule="evenodd" clip-rule="evenodd" d="M11.0364 0C4.92958 0 0 5.04526 0 11.2954C0 16.2653 3.16376 20.4823 7.57831 21.9883C8.16692 22.0636 8.31407 21.7624 8.31407 21.4612V19.5033C5.22389 20.181 4.5617 17.9973 4.5617 17.9973C4.04667 16.7171 3.31091 16.3406 3.31091 16.3406C2.28085 15.6629 3.38449 15.6629 3.38449 15.6629C4.48813 15.7382 5.07674 16.7924 5.07674 16.7924C6.03322 18.5244 7.65189 17.9973 8.31407 17.6961C8.38765 16.943 8.68195 16.4912 9.04983 16.19C6.62183 15.8888 4.04667 14.9099 4.04667 10.6176C4.04667 9.4128 4.48813 8.35857 5.15031 7.60554C5.00316 7.30433 4.63528 6.1748 5.22389 4.59345C5.22389 4.59345 6.18037 4.29224 8.2405 5.72298C9.12341 5.49707 10.0799 5.34647 11.0364 5.34647C11.9929 5.34647 12.9494 5.49707 13.8323 5.72298C15.966 4.29224 16.8489 4.59345 16.8489 4.59345C17.4375 6.1748 17.0696 7.30433 16.9225 7.60554C17.6582 8.35857 18.0261 9.4128 18.0261 10.6176C18.0261 14.9852 15.4509 15.8888 13.0229 16.19C13.3908 16.5665 13.7587 17.2442 13.7587 18.2985V21.3859C13.7587 21.6871 13.9794 22.0636 14.4944 21.913C18.909 20.4069 21.9992 16.19 21.9992 11.2201C22.0728 5.04526 17.1432 0 11.0364 0Z" fill="#181616"/>
</svg>
